<svg xmlns="http://www.w3.org/2000/svg" viewBox="0 0 200 200">
  <rect width="200" height="200" fill="#e8f0ff"/>
  <g fill="none" stroke="#84a5ff" stroke-width="5" stroke-linecap="round" stroke-linejoin="round">
    <rect x="65" y="65" width="70" height="70" rx="8"/>
    <rect x="82" y="82" width="36" height="36" rx="4"/>
    <line x1="80" y1="65" x2="80" y2="50"/>
    <line x1="100" y1="65" x2="100" y2="50"/>
    <line x1="120" y1="65" x2="120" y2="50"/>
    <line x1="80" y1="135" x2="80" y2="150"/>
    <line x1="100" y1="135" x2="100" y2="150"/>
    <line x1="120" y1="135" x2="120" y2="150"/>
    <line x1="65" y1="80" x2="50" y2="80"/>
    <line x1="65" y1="100" x2="50" y2="100"/>
    <line x1="65" y1="120" x2="50" y2="120"/>
    <line x1="135" y1="80" x2="150" y2="80"/>
    <line x1="135" y1="100" x2="150" y2="100"/>
    <line x1="135" y1="120" x2="150" y2="120"/>
  </g>
  <text x="100" y="178" text-anchor="middle" font-family="system-ui, sans-serif" font-size="13" fill="#5475ff">Sin imagen</text>
</svg>
